<svg width="512" height="512" viewBox="0 0 512 512" fill="none" xmlns="http://www.w3.org/2000/svg">
  <defs>
    <linearGradient id="tile" x1="104" y1="86" x2="404" y2="400" gradientUnits="userSpaceOnUse">
      <stop stop-color="#100F14"/>
      <stop offset="1" stop-color="#241D35"/>
    </linearGradient>
    <linearGradient id="violet" x1="168" y1="128" x2="332" y2="360" gradientUnits="userSpaceOnUse">
      <stop stop-color="#E8DCFF"/>
      <stop offset="0.48" stop-color="#AC71FF"/>
      <stop offset="1" stop-color="#6F31FF"/>
    </linearGradient>
    <linearGradient id="shine" x1="161" y1="120" x2="312" y2="248" gradientUnits="userSpaceOnUse">
      <stop stop-color="white" stop-opacity="0.6"/>
      <stop offset="1" stop-color="white" stop-opacity="0"/>
    </linearGradient>
    <filter id="shadow" x="66" y="66" width="380" height="380" filterUnits="userSpaceOnUse" color-interpolation-filters="sRGB">
      <feFlood flood-opacity="0" result="BackgroundImageFix"/>
      <feColorMatrix in="SourceAlpha" type="matrix" values="0 0 0 0 0 0 0 0 0 0 0 0 0 0 0 0 0 0 127 0" result="hardAlpha"/>
      <feOffset dy="18"/>
      <feGaussianBlur stdDeviation="18"/>
      <feComposite in2="hardAlpha" operator="out"/>
      <feColorMatrix type="matrix" values="0 0 0 0 0.117647 0 0 0 0 0.0784314 0 0 0 0 0.254902 0 0 0 0.26 0"/>
      <feBlend mode="normal" in2="BackgroundImageFix" result="effect1_dropShadow_0_1"/>
      <feBlend mode="normal" in="SourceGraphic" in2="effect1_dropShadow_0_1" result="shape"/>
    </filter>
  </defs>

  <g filter="url(#shadow)">
    <rect x="100" y="82" width="312" height="312" rx="88" fill="url(#tile)"/>
    <rect x="100.75" y="82.75" width="310.5" height="310.5" rx="87.25" stroke="white" stroke-opacity="0.08" stroke-width="1.5"/>
  </g>

  <path d="M151 134C151 122.954 159.954 114 171 114H343C354.046 114 363 122.954 363 134V183C363 194.046 354.046 203 343 203H171C159.954 203 151 194.046 151 183V134Z" fill="url(#shine)" fill-opacity="0.22"/>

  <path d="M174 165C174 150.088 186.088 138 201 138H246C307.304 138 357 187.696 357 249C357 310.304 307.304 360 246 360H201C186.088 360 174 347.912 174 333V165Z" fill="white"/>
  <path d="M221 181C221 172.163 228.163 165 237 165H246C292.392 165 330 202.608 330 249C330 295.392 292.392 333 246 333H237C228.163 333 221 325.837 221 317V181Z" fill="url(#tile)"/>

  <path d="M174 165C174 150.088 186.088 138 201 138H232V360H201C186.088 360 174 347.912 174 333V165Z" fill="url(#violet)"/>

  <path d="M189 190L232 163" stroke="#F0E7FF" stroke-width="10" stroke-linecap="round" opacity="0.95"/>
  <path d="M189 228L224 205" stroke="#F0E7FF" stroke-width="10" stroke-linecap="round" opacity="0.74"/>
  <path d="M189 266L218 247" stroke="#F0E7FF" stroke-width="10" stroke-linecap="round" opacity="0.56"/>

  <path d="M248 191H286C318.585 191 345 217.415 345 250C345 282.585 318.585 309 286 309H248" stroke="url(#violet)" stroke-width="24" stroke-linecap="round"/>

  <circle cx="307" cy="213" r="7" fill="#F0E7FF"/>
  <path d="M306.5 212.5L324 196" stroke="#F0E7FF" stroke-width="8" stroke-linecap="round"/>
  <path d="M318 196H324V202" stroke="#F0E7FF" stroke-width="8" stroke-linecap="round" stroke-linejoin="round"/>
</svg>
